<?xml version="1.0" standalone="no"?>
<!DOCTYPE svg PUBLIC "-//W3C//DTD SVG 20010904//EN"
        "http://www.w3.org/TR/2001/REC-SVG-20010904/DTD/svg10.dtd">
<svg version="1.0" xmlns="http://www.w3.org/2000/svg"
     width="266.000000pt" height="267.000000pt" viewBox="0 0 266.000000 267.000000"
     preserveAspectRatio="xMidYMid meet">
    <metadata>
        N2Sky Logo. 2018
    </metadata>
    <g transform="translate(0.000000,267.000000) scale(0.100000,-0.100000)"
       fill="#6b6b6b" stroke="none">
        <path d="M1302 2638 c-9 -9 -12 -83 -12 -270 0 -245 -1 -259 -20 -278 -27 -27
-37 -26 -170 21 -63 23 -132 46 -152 52 -23 7 -38 17 -38 27 1 8 14 53 31 100
80 222 90 255 87 284 -2 23 -9 32 -25 34 -27 4 -46 -23 -72 -106 -11 -35 -27
-77 -34 -95 -8 -18 -22 -51 -32 -74 -10 -24 -21 -43 -25 -43 -5 0 -30 34 -56
76 -76 118 -100 136 -128 92 -12 -20 -10 -26 101 -219 35 -60 109 -139 130
-139 8 0 33 -9 55 -20 23 -11 45 -20 50 -20 5 0 27 -8 51 -19 23 -10 87 -36
142 -58 l100 -39 0 -260 c0 -275 -1 -283 -52 -340 -18 -21 -151 -114 -163
-114 -4 0 -13 12 -21 27 -7 16 -31 56 -51 91 -21 34 -38 65 -38 69 0 3 -6 14
-14 22 -7 9 -28 43 -46 76 -18 33 -43 76 -55 95 -25 39 -94 110 -108 110 -5 0
-28 12 -51 28 -22 15 -63 38 -89 51 -27 14 -52 32 -57 40 -10 21 -25 98 -61
316 -6 39 -13 80 -15 92 -5 24 -32 37 -59 27 -15 -6 -17 -16 -11 -68 3 -34 11
-86 16 -116 5 -30 13 -84 16 -119 7 -63 7 -63 -16 -56 -13 4 -46 21 -74 37
-100 57 -116 63 -134 52 -9 -6 -19 -19 -20 -28 -4 -17 24 -56 39 -56 5 0 38
-18 74 -40 36 -22 67 -40 70 -40 11 0 253 -152 269 -169 11 -12 15 -27 12 -38
-8 -24 -60 -80 -108 -115 -20 -15 -42 -33 -50 -40 -7 -7 -35 -30 -62 -50 l-49
-38 -36 38 c-20 21 -48 53 -62 72 -15 19 -35 45 -45 57 -11 12 -37 44 -59 72
-49 60 -79 79 -103 65 -28 -18 -25 -47 10 -84 18 -20 45 -52 60 -72 15 -20 34
-42 41 -50 23 -23 67 -92 67 -105 0 -10 -25 -13 -96 -13 -102 0 -134 -9 -134
-40 0 -33 33 -40 192 -39 171 1 184 3 225 39 15 14 45 37 65 52 20 15 42 33
50 40 7 7 57 47 112 87 l98 75 19 -25 c10 -13 19 -27 19 -31 0 -4 23 -46 50
-94 82 -142 100 -226 61 -276 -18 -22 -151 -118 -165 -118 -3 0 -35 -18 -71
-40 -36 -22 -67 -40 -70 -40 -3 0 -27 -13 -53 -30 -52 -32 -72 -36 -100 -20
-9 5 -60 23 -112 41 -52 17 -99 34 -105 38 -5 4 -42 18 -82 31 -59 19 -75 21
-88 10 -37 -30 -4 -69 81 -95 33 -10 77 -26 99 -35 22 -10 54 -23 72 -30 63
-24 59 -33 -35 -96 -70 -47 -88 -65 -90 -87 -7 -59 44 -42 251 84 26 16 49 29
52 29 3 0 33 17 67 38 62 38 118 62 144 62 19 0 52 -69 59 -122 4 -23 10 -63
15 -88 5 -25 11 -70 14 -101 l6 -56 -53 -11 c-28 -6 -83 -17 -122 -23 -212
-35 -235 -44 -235 -92 0 -18 5 -19 62 -13 35 4 90 10 123 15 179 26 178 26
170 1 -4 -13 -25 -52 -46 -87 -48 -77 -55 -126 -21 -131 31 -5 55 18 99 97 21
36 48 84 61 106 52 90 55 105 43 177 -6 38 -16 99 -21 138 -6 38 -14 100 -20
137 -22 153 -28 133 58 185 43 25 100 58 127 74 28 15 66 37 85 49 75 46 188
95 220 95 21 0 71 -18 127 -46 102 -50 101 -48 51 -122 -15 -24 -28 -45 -28
-47 0 -3 -18 -34 -40 -70 -22 -36 -40 -68 -40 -70 0 -3 -11 -22 -23 -43 -84
-133 -81 -122 -85 -297 l-3 -160 -37 -35 c-21 -19 -53 -47 -72 -61 -19 -14
-49 -39 -67 -55 -17 -16 -59 -51 -92 -78 -34 -28 -61 -55 -61 -61 0 -16 33
-45 52 -45 8 0 28 12 44 27 16 16 46 40 66 55 20 15 42 34 50 41 23 23 92 67
105 67 10 0 13 -25 13 -96 0 -102 9 -134 40 -134 36 0 40 31 40 284 0 233 1
247 20 266 27 27 37 26 170 -21 63 -23 132 -46 153 -52 22 -7 37 -17 37 -27
-1 -8 -14 -53 -31 -100 -90 -249 -93 -259 -81 -285 14 -30 47 -33 62 -5 6 11
20 48 30 81 11 33 26 74 33 92 8 18 22 51 32 75 10 23 22 41 27 40 4 -2 34
-41 66 -88 50 -74 61 -85 90 -88 51 -5 47 12 -43 173 -62 111 -132 195 -161
195 -9 0 -101 36 -371 147 -8 3 6 35 39 91 105 179 167 256 214 268 24 6 121
-36 187 -80 21 -15 40 -26 42 -26 3 0 33 -17 67 -38 35 -20 85 -48 112 -62 27
-13 52 -34 56 -45 5 -11 18 -69 29 -130 11 -60 27 -146 35 -190 15 -81 31
-105 69 -105 18 0 19 5 13 63 -4 34 -10 89 -15 122 -26 179 -26 178 -1 170 13
-4 52 -25 86 -46 34 -21 79 -41 99 -45 l36 -6 -3 33 c-2 28 -12 40 -57 70 -29
20 -70 44 -90 55 -84 44 -278 164 -295 183 -11 12 -15 27 -12 38 8 24 60 80
108 115 20 15 42 33 50 41 7 7 36 29 64 49 l50 37 31 -37 c18 -20 44 -53 60
-72 15 -19 34 -42 43 -50 8 -8 28 -33 44 -54 68 -91 114 -116 136 -75 12 21
-3 55 -39 89 -9 8 -28 31 -43 52 -15 20 -34 42 -41 50 -23 23 -67 92 -67 105
0 10 25 13 96 13 102 0 134 9 134 40 0 33 -33 40 -192 39 -171 -1 -184 -3
-225 -39 -15 -14 -45 -37 -65 -52 -20 -15 -42 -33 -50 -40 -34 -33 -219 -168
-229 -168 -28 0 -391 215 -436 259 -53 50 -66 87 -71 188 l-4 92 273 3 274 3
67 43 c37 23 70 42 72 42 3 0 28 14 57 31 l52 30 96 -31 c53 -18 100 -35 106
-39 5 -4 56 -22 112 -41 85 -27 105 -31 118 -20 37 31 9 63 -85 96 -110 38
-220 85 -220 94 0 9 134 100 149 100 6 0 18 11 26 24 13 19 14 29 5 45 -15 29
-36 26 -103 -14 -32 -19 -60 -35 -62 -35 -3 0 -34 -18 -70 -40 -36 -22 -68
-40 -70 -40 -3 0 -22 -11 -43 -23 -142 -90 -172 -96 -201 -39 -20 40 -47 168
-55 268 l-5 61 122 22 c67 13 156 30 197 38 85 16 106 30 95 63 -7 21 -11 22
-69 16 -33 -4 -88 -10 -121 -15 -178 -26 -178 -26 -170 -1 4 13 21 46 37 74
57 100 63 116 52 134 -6 9 -22 17 -34 17 -24 0 -47 -33 -130 -180 -75 -132
-74 -130 -61 -206 6 -38 16 -102 21 -141 6 -40 15 -98 20 -129 6 -30 10 -72
10 -93 l0 -38 -162 4 c-151 3 -167 5 -212 28 -82 43 -86 57 -86 320 l0 226 38
34 c21 19 53 47 72 61 19 14 49 39 67 55 17 16 54 47 82 69 60 49 79 79 65
103 -18 28 -47 25 -84 -10 -20 -18 -52 -45 -72 -60 -20 -15 -42 -34 -50 -41
-23 -23 -92 -67 -105 -67 -10 0 -13 27 -13 104 0 57 -3 111 -6 120 -7 19 -45
21 -62 4z"/>
    </g>
</svg>
