<?xml version="1.0" encoding="iso-8859-1"?>
<!-- Generator: Adobe Illustrator 19.0.0, SVG Export Plug-In . SVG Version: 6.00 Build 0)  -->
<svg xmlns="http://www.w3.org/2000/svg" xmlns:xlink="http://www.w3.org/1999/xlink" version="1.1" id="Capa_1" x="0px" y="0px" viewBox="0 0 480 480" style="enable-background:new 0 0 480 480;" xml:space="preserve" width="512px" height="512px">
<g>
	<g>
		<path d="M480,240c0-23.744-17.336-43.448-40-47.28V95.28c22.664-3.832,40-23.544,40-47.28c0-26.472-21.528-48-48-48    c-23.736,0-43.448,17.336-47.28,40h-97.44C283.448,17.336,263.736,0,240,0c-23.736,0-43.448,17.336-47.28,40H95.28    C91.448,17.336,71.736,0,48,0C21.528,0,0,21.528,0,48c0,23.736,17.336,43.448,40,47.28v97.44C17.336,196.552,0,216.264,0,240    c0,23.736,17.336,43.448,40,47.28v97.44C17.336,388.552,0,408.264,0,432c0,26.472,21.528,48,48,48    c23.736,0,43.448-17.336,47.28-40h97.44c3.824,22.664,23.536,40,47.28,40s43.448-17.336,47.28-40h97.44    c3.824,22.664,23.536,40,47.28,40c26.472,0,48-21.528,48-48c0-23.736-17.336-43.448-40-47.28v-97.44    C462.664,283.456,480,263.744,480,240z M432,16c17.648,0,32,14.352,32,32s-14.352,32-32,32s-32-14.352-32-32S414.352,16,432,16z     M404.232,87.072c5.776,4.128,12.496,6.976,19.768,8.208v97.44c-20.056,3.392-35.888,19.224-39.28,39.28H344v-8    c0-4.416-3.576-8-8-8h-19.728c-1.408-4.464-3.2-8.792-5.384-12.952l13.96-13.968c3.128-3.128,3.128-8.184,0-11.312l-5.656-5.656    L404.232,87.072z M295.256,283.936l12.632,12.64l-11.312,11.312l-12.632-12.632c-2.648-2.64-6.768-3.104-9.92-1.112    c-6.128,3.856-12.784,6.624-19.792,8.216c-3.648,0.824-6.232,4.064-6.232,7.8V328h-16v-17.84c0-3.736-2.584-6.976-6.224-7.8    c-7.008-1.592-13.664-4.36-19.792-8.216c-3.16-1.992-7.28-1.52-9.92,1.112l-12.632,12.632l-11.312-11.312l12.632-12.64    c2.64-2.64,3.104-6.76,1.112-9.92c-3.848-6.12-6.616-12.776-8.216-19.792c-0.832-3.64-4.072-6.224-7.808-6.224H152v-16h17.84    c3.736,0,6.968-2.584,7.8-6.224c1.6-7.008,4.368-13.672,8.216-19.792c1.992-3.16,1.528-7.28-1.112-9.92l-12.632-12.64    l11.312-11.312l12.632,12.632c2.64,2.64,6.768,3.104,9.92,1.112c6.128-3.856,12.784-6.624,19.792-8.216    c3.648-0.824,6.232-4.064,6.232-7.8V152h16v17.84c0,3.736,2.584,6.976,6.224,7.8c7.008,1.592,13.664,4.36,19.792,8.216    c3.16,1.992,7.272,1.528,9.92-1.112l12.632-12.632l11.312,11.312l-12.632,12.64c-2.64,2.64-3.104,6.76-1.112,9.92    c3.848,6.12,6.616,12.776,8.216,19.792c0.832,3.64,4.072,6.224,7.808,6.224H328v16h-17.84c-3.736,0-6.968,2.584-7.8,6.224    c-1.6,7.008-4.368,13.672-8.216,19.792C292.152,277.176,292.616,281.296,295.256,283.936z M287.28,56h97.44    c1.232,7.272,4.08,13.992,8.2,19.768l-85.04,85.04l-5.656-5.656c-3.128-3.128-8.184-3.128-11.312,0l-13.96,13.96    c-4.16-2.176-8.496-3.976-12.952-5.376V144c0-4.416-3.576-8-8-8h-8V95.28C268.056,91.888,283.888,76.056,287.28,56z M240,16    c17.648,0,32,14.352,32,32s-14.352,32-32,32s-32-14.352-32-32S222.352,16,240,16z M95.28,56h97.44    c3.392,20.056,19.224,35.888,39.28,39.28V136h-8c-4.424,0-8,3.584-8,8v19.728c-4.464,1.408-8.8,3.2-12.952,5.376l-13.96-13.96    c-3.128-3.128-8.184-3.128-11.312,0l-5.656,5.656L87.08,75.76C91.2,69.992,94.048,63.272,95.28,56z M160.808,172.12l-5.656,5.656    c-3.128,3.128-3.128,8.184,0,11.312l13.96,13.968c-2.176,4.16-3.976,8.488-5.384,12.952H144c-4.424,0-8,3.584-8,8v8H95.28    c-3.384-20.056-19.224-35.888-39.28-39.28V95.28c7.272-1.232,13.992-4.08,19.768-8.2L160.808,172.12z M16,48    c0-17.648,14.352-32,32-32s32,14.352,32,32S65.648,80,48,80S16,65.648,16,48z M16,240c0-17.648,14.352-32,32-32s32,14.352,32,32    s-14.352,32-32,32S16,257.648,16,240z M48,464c-17.648,0-32-14.352-32-32s14.352-32,32-32s32,14.352,32,32S65.648,464,48,464z     M75.768,392.92c-5.776-4.12-12.496-6.968-19.768-8.2v-97.44c20.056-3.384,35.888-19.224,39.28-39.28H136v8c0,4.416,3.576,8,8,8    h19.728c1.408,4.464,3.2,8.792,5.384,12.952l-13.96,13.968c-3.128,3.128-3.128,8.184,0,11.312l5.656,5.656L75.768,392.92z     M192.72,424H95.28c-1.232-7.272-4.08-13.992-8.2-19.768l85.04-85.04l5.656,5.656c3.128,3.128,8.184,3.128,11.312,0l13.96-13.96    c4.16,2.176,8.496,3.976,12.952,5.376V336c0,4.416,3.576,8,8,8h8v40.72C211.944,388.112,196.112,403.944,192.72,424z M240,464    c-17.648,0-32-14.352-32-32s14.352-32,32-32s32,14.352,32,32S257.648,464,240,464z M384.72,424h-97.44    c-3.392-20.056-19.224-35.888-39.28-39.28V344h8c4.424,0,8-3.584,8-8v-19.728c4.464-1.408,8.8-3.2,12.952-5.376l13.96,13.96    c3.128,3.128,8.184,3.128,11.312,0l5.656-5.656l85.04,85.04C388.8,410.008,385.952,416.728,384.72,424z M319.192,307.88    l5.656-5.656c3.128-3.128,3.128-8.184,0-11.312l-13.96-13.968c2.176-4.16,3.976-8.488,5.384-12.952H336c4.424,0,8-3.584,8-8v-8    h40.72c3.384,20.056,19.224,35.888,39.28,39.28v97.448c-7.272,1.232-13.992,4.08-19.768,8.2L319.192,307.88z M464,432    c0,17.648-14.352,32-32,32s-32-14.352-32-32s14.352-32,32-32S464,414.352,464,432z M432,272c-17.648,0-32-14.352-32-32    s14.352-32,32-32s32,14.352,32,32S449.648,272,432,272z" fill="#FFFFFF"/>
	</g>
</g>
<g>
	<g>
		<path d="M240,200c-22.056,0-40,17.944-40,40c0,22.056,17.944,40,40,40c22.056,0,40-17.944,40-40C280,217.944,262.056,200,240,200z     M240,264c-13.232,0-24-10.768-24-24s10.768-24,24-24s24,10.768,24,24S253.232,264,240,264z" fill="#FFFFFF"/>
	</g>
</g>
<g>
</g>
<g>
</g>
<g>
</g>
<g>
</g>
<g>
</g>
<g>
</g>
<g>
</g>
<g>
</g>
<g>
</g>
<g>
</g>
<g>
</g>
<g>
</g>
<g>
</g>
<g>
</g>
<g>
</g>
</svg>
