<?xml version="1.0" encoding="iso-8859-1"?>
<!-- Generator: Adobe Illustrator 19.0.0, SVG Export Plug-In . SVG Version: 6.00 Build 0)  -->
<svg version="1.1" id="Capa_1" xmlns="http://www.w3.org/2000/svg" xmlns:xlink="http://www.w3.org/1999/xlink" x="0px" y="0px"
	 viewBox="0 0 504.686 504.686" style="enable-background:new 0 0 504.686 504.686;" xml:space="preserve">
<g>
	<g>
		<path d="M463.645,149.536c-2.438-39.01-33.321-70.705-72.33-75.581C375.06,29.257,332.8,0,284.851,0
			c-43.886,0-82.895,24.381-101.587,62.578C127.187,27.632,22.349,60.14,24.787,161.727C9.346,177.168,0.406,198.298,0.406,220.241
			c0,44.698,36.571,81.27,81.27,81.27h81.27v-16.254h-81.27c-35.759,0-65.016-29.257-65.016-65.016
			c0-33.321,25.194-51.2,25.194-51.2c-8.127-93.46,91.022-130.844,148.724-80.457c0,0,20.317-71.517,94.273-71.517
			c69.892,0,94.273,63.391,94.273,73.143c21.943-1.625,69.892,14.629,68.267,69.892c0,0,40.635,15.441,40.635,60.14
			c0,35.759-29.257,65.016-65.016,65.016h-81.27v16.254h81.27c44.698,0,81.27-36.571,81.27-81.27
			C504.279,190.984,488.838,164.165,463.645,149.536z"/>
	</g>
</g>
<g>
	<g>
		<path d="M276.724,472.178v-16.254H260.47v-24.381h73.143V155.225h-162.54v276.318h73.143v24.381h-16.254v16.254H65.422v16.254
			h162.54v16.254h48.762v-16.254h162.54v-16.254H276.724z M187.327,415.289v-243.81h130.032v243.81H187.327z M260.47,488.432
			h-16.254v-16.254h16.254V488.432z"/>
	</g>
</g>
<g>
	<g>
		<rect x="203.581" y="187.733" width="97.524" height="16.254"/>
	</g>
</g>
<g>
	<g>
		<rect x="203.581" y="220.241" width="97.524" height="16.254"/>
	</g>
</g>
<g>
	<g>
		<rect x="203.581" y="252.749" width="97.524" height="16.254"/>
	</g>
</g>
<g>
	<g>
		<rect x="244.216" y="366.527" width="16.254" height="16.254"/>
	</g>
</g>
<g>
	<g>
		<path d="M57.295,155.225h16.254c0-31.695,25.194-56.889,56.889-56.889V82.083C89.803,82.083,57.295,114.59,57.295,155.225z"/>
	</g>
</g>
<g>
</g>
<g>
</g>
<g>
</g>
<g>
</g>
<g>
</g>
<g>
</g>
<g>
</g>
<g>
</g>
<g>
</g>
<g>
</g>
<g>
</g>
<g>
</g>
<g>
</g>
<g>
</g>
<g>
</g>
</svg>
