<?xml version="1.0" encoding="iso-8859-1"?>
<!-- Generator: Adobe Illustrator 19.0.0, SVG Export Plug-In . SVG Version: 6.00 Build 0)  -->
<svg xmlns="http://www.w3.org/2000/svg" xmlns:xlink="http://www.w3.org/1999/xlink" version="1.1" id="Layer_1" x="0px" y="0px" viewBox="0 0 505.8 505.8" style="enable-background:new 0 0 505.8 505.8;" xml:space="preserve" width="512px" height="512px">
<g>
	<g>
		<path d="M279.201,237.175h-133.26c-7.715,0-14.027,6.312-14.027,14.027c0,7.715,6.312,14.027,14.027,14.027h133.26    c7.715,0,14.027-6.312,14.027-14.027C293.229,243.487,286.916,237.175,279.201,237.175z" fill="#FFFFFF"/>
	</g>
</g>
<g>
	<g>
		<path d="M359.157,239.98h-24.548c-7.715,0-14.027,6.312-14.027,14.027c0,7.715,6.312,14.027,14.027,14.027h24.548    c7.715,0,14.027-6.312,14.027-14.027C373.185,246.293,366.872,239.98,359.157,239.98z" fill="#FFFFFF"/>
	</g>
</g>
<g>
	<g>
		<path d="M197.842,392.879l22.444-22.444c5.611-5.611,5.611-14.027,0-19.638s-14.027-5.611-19.638,0l-32.263,32.263    c-2.104,2.805-3.507,6.312-3.507,9.819c0,3.507,1.403,7.014,4.208,9.819l31.562,32.263c6.312,5.611,15.43,4.91,19.638,0    c5.611-5.611,5.611-14.027,0-19.638L197.842,392.879z" fill="#FFFFFF"/>
	</g>
</g>
<g>
	<g>
		<path d="M356.352,383.06l-32.263-32.263c-5.611-5.611-14.027-5.611-19.638,0s-5.611,14.027,0,19.638l22.444,21.742l-22.444,22.444    c-5.611,6.312-5.611,15.43,0,20.34c4.208,4.208,14.729,4.91,19.638,0l32.263-32.263c2.805-2.805,4.208-6.312,4.208-9.819    C360.56,389.372,359.157,385.865,356.352,383.06z" fill="#FFFFFF"/>
	</g>
</g>
<g>
	<g>
		<path d="M292.527,440.572l-33.666-103.101c-2.104-7.715-10.521-11.222-17.534-9.118c-7.715,2.104-11.222,10.521-9.118,17.534    l33.666,103.101c2.104,7.014,10.521,10.521,17.534,9.118C291.124,456.704,294.631,447.586,292.527,440.572z" fill="#FFFFFF"/>
	</g>
</g>
<g>
	<g>
		<path d="M422.982,153.712c4.91-28.756,0-57.512-14.027-83.463C374.587,5.723,293.93-18.825,229.404,15.542    c-19.638,10.521-36.471,25.951-49.096,44.888c-35.068,2.805-65.227,27.353-74.345,61.019    C47.048,127.761,0.056,177.558,0.056,238.578c0,50.499,32.263,94.685,79.255,110.816V465.12c0,22.444,18.236,40.68,40.679,40.68    h265.819c22.444,0,40.679-18.236,40.679-40.68V352.901c45.589-10.521,79.255-51.2,79.255-99.595    C505.042,204.21,469.974,162.83,422.982,153.712z M397.733,464.419c0,7.014-5.611,12.625-12.625,12.625H119.99    c-7.014,0-12.625-5.611-12.625-12.625V309.416h290.367V464.419z M398.434,281.361h-0.701H107.366v-46.992    c0-7.014,5.611-12.625,12.625-12.625h265.819c7.014,0,12.625,5.611,12.625,12.625V281.361z M425.787,324.145v-90.477    c0-22.444-18.236-40.679-40.679-40.679H119.99c-22.444,0-40.679,18.236-40.679,40.679v84.866    c-30.86-14.729-51.2-45.589-51.2-80.658c0-49.096,39.978-89.074,89.074-89.775c7.014,0,12.625-4.91,14.027-11.923    c3.507-28.055,27.353-48.395,55.408-48.395c0.701,0,0.701,0,1.403,0c5.611,0,9.819-2.805,12.625-7.014    c9.819-17.534,24.548-31.562,42.082-40.679c51.2-27.353,115.025-7.715,142.378,42.784c13.326,23.847,16.131,51.901,8.416,78.553    c-1.403,4.208-0.701,8.416,2.104,11.923c2.806,3.507,6.312,5.611,10.521,5.611c39.277,2.104,70.838,35.069,70.838,74.345    C476.987,286.271,455.946,314.326,425.787,324.145z" fill="#FFFFFF"/>
	</g>
</g>
<g>
</g>
<g>
</g>
<g>
</g>
<g>
</g>
<g>
</g>
<g>
</g>
<g>
</g>
<g>
</g>
<g>
</g>
<g>
</g>
<g>
</g>
<g>
</g>
<g>
</g>
<g>
</g>
<g>
</g>
</svg>
