<?xml version="1.0" encoding="iso-8859-1"?>
<!-- Generator: Adobe Illustrator 19.0.0, SVG Export Plug-In . SVG Version: 6.00 Build 0)  -->
<svg version="1.1" id="Capa_1" xmlns="http://www.w3.org/2000/svg" xmlns:xlink="http://www.w3.org/1999/xlink" x="0px" y="0px"
	 viewBox="0 0 511.999 511.999" style="enable-background:new 0 0 511.999 511.999;" xml:space="preserve">
<path style="fill:#97D4AC;" d="M295.381,225.153v-65.11h-78.769v65.455c0,11.961-6.992,22.709-17.771,27.894
	c-44.293,21.305-74.866,66.602-74.866,119.041c0,73.004,59.949,132.522,132.951,132.02c72.487-0.499,131.094-59.415,131.094-132.019
	c0-52.472-30.611-97.792-74.95-119.081C302.238,248.151,295.381,237.168,295.381,225.153z"/>
<path style="opacity:0.1;enable-background:new    ;" d="M313.069,253.353c-10.831-5.2-17.688-16.184-17.688-28.2v-65.11h-50.803
	v65.11c0,12.015,6.857,22.998,17.688,28.2c44.339,21.288,74.95,66.61,74.95,119.081c0,64.204-45.834,117.694-106.564,129.56
	c8.502,1.67,17.287,2.521,26.272,2.46c72.487-0.499,131.094-59.415,131.094-132.019
	C388.019,319.961,357.407,274.641,313.069,253.353z"/>
<circle style="fill:#FFFFFF;" cx="255.999" cy="367.077" r="56.661"/>
<path style="fill:#6CA87E;" d="M315.749,165.191H196.243c-5.556,0-10.061-4.504-10.061-10.061v-10.086
	c0-5.556,4.504-10.061,10.061-10.061h119.506c5.556,0,10.06,4.504,10.06,10.061v10.086
	C325.81,160.687,321.306,165.191,315.749,165.191z"/>
<g>
	<circle style="fill:#FFC433;" cx="255.325" cy="27.902" r="20.356"/>
	<circle style="fill:#FFC433;" cx="299.199" cy="81.822" r="13.149"/>
	<circle style="fill:#FFC433;" cx="226.501" cy="91.621" r="13.149"/>
</g>
<path d="M255.322,55.804c15.385,0,27.901-12.516,27.901-27.901C283.224,12.516,270.706,0,255.322,0
	c-15.386,0-27.902,12.516-27.902,27.902C227.42,43.286,239.936,55.804,255.322,55.804z M255.322,15.091
	c7.063,0,12.81,5.748,12.81,12.811s-5.747,12.81-12.81,12.81c-7.063,0-12.811-5.747-12.811-12.81S248.258,15.091,255.322,15.091z"/>
<path d="M299.197,102.511c11.411,0,20.693-9.283,20.693-20.692s-9.284-20.693-20.693-20.693c-11.41,0-20.693,9.284-20.693,20.693
	S287.786,102.511,299.197,102.511z M299.197,76.215c3.09,0,5.603,2.513,5.603,5.603c0,3.089-2.513,5.602-5.603,5.602
	s-5.603-2.513-5.603-5.602C293.593,78.728,296.106,76.215,299.197,76.215z"/>
<path d="M226.505,112.315c11.411,0,20.693-9.284,20.693-20.693s-9.284-20.693-20.693-20.693c-11.41,0-20.693,9.284-20.693,20.693
	S215.095,112.315,226.505,112.315z M226.505,86.018c3.09,0,5.603,2.513,5.603,5.603c0,3.09-2.513,5.603-5.603,5.603
	c-3.09,0-5.603-2.513-5.603-5.603C220.903,88.531,223.415,86.018,226.505,86.018z"/>
<path d="M446.195,429.136c-12.276-9.067-30.426-20.284-52.698-32.582c1.367-7.889,2.067-15.952,2.067-24.12
	c0-9.639-1.001-19.174-2.934-28.484c6.989-3.492,13.647-6.922,19.915-10.267c18.463-9.855,32.687-18.507,42.278-25.717
	c9.429-7.087,18.589-15.554,15.037-24.622c-3.259-8.325-13.909-10.262-36.76-6.683c-15.835,2.481-37.579,7.727-63.135,15.223
	c-13.74-19.418-32.159-35.025-53.632-45.335c-8.146-3.912-13.409-12.31-13.409-21.398V214.75c0-4.168-3.377-7.545-7.545-7.545
	c-4.168,0-7.545,3.377-7.545,7.545v10.401c0,14.855,8.623,28.594,21.968,35c31.598,15.172,54.949,43.059,65.084,75.699
	c-16.816,8.146-35.351,16.592-54.983,25.062c-3.111-32.526-30.581-58.052-63.908-58.052c-32.471,0-59.373,24.234-63.612,55.562
	c-19.216-9.196-37.343-18.326-53.779-27.093c10.819-30.655,33.419-56.668,63.506-71.14c13.599-6.54,22.047-19.834,22.047-34.693
	v-57.91h63.678v16.602c0,4.168,3.377,7.545,7.545,7.545c4.168,0,7.545-3.377,7.545-7.545v-16.602h22.884
	c4.168,0,7.545-3.377,7.545-7.545v-25.059c0-4.168-3.377-7.545-7.545-7.545H186.183c-4.168,0-7.545,3.377-7.545,7.545v25.059
	c0,4.168,3.377,7.545,7.545,7.545h22.884v57.91c0,9.007-5.172,17.089-13.497,21.094c-19.81,9.529-37.017,23.574-50.345,40.954
	c-25.287-8.509-46.851-14.618-62.608-17.726c-22.733-4.482-33.466-2.967-37.051,5.229c-3.901,8.922,4.921,17.741,14.064,25.189
	c9.303,7.58,23.179,16.781,41.242,27.349c6.184,3.619,12.764,7.339,19.675,11.135c-2.717,10.951-4.119,22.259-4.119,33.708
	c0,6.278,0.425,12.491,1.242,18.613c-22.802,11.445-41.433,21.97-54.093,30.57c-13.487,9.161-25.421,19.039-21.446,29.186
	c2.603,6.649,10.003,8.422,18.392,8.421c3.051,0,6.234-0.233,9.364-0.554c11.938-1.219,28.256-4.523,48.501-9.823
	c5.713-1.495,11.668-3.133,17.821-4.894c5.935,9.86,13.141,19.063,21.539,27.404c26.418,26.236,61.272,40.648,98.248,40.647
	c0.326,0,0.655-0.001,0.982-0.003c37.075-0.256,71.888-14.887,98.03-41.197c6.792-6.836,12.784-14.258,17.944-22.142
	c5.986,1.968,11.784,3.808,17.353,5.501c20.022,6.087,36.199,10.027,48.079,11.712c3.836,0.543,7.757,0.962,11.432,0.962
	c7.51,0,13.991-1.747,16.611-7.738C470.788,449.119,459.281,438.801,446.195,429.136z M193.728,142.53h124.536v9.968h-22.884
	h-78.769h-22.884V142.53z M378.304,305.175c43.035-12.418,65.323-15.447,74.478-15.177c-4.976,4.918-18.458,15.416-54.555,34.167
	c-3.099,1.61-6.29,3.24-9.556,4.884C385.978,320.806,382.514,312.816,378.304,305.175z M380.473,372.433
	c0,20.903-5.22,40.641-14.416,57.985c-18.738-6.428-39.18-14.034-60.538-22.518c7.05-8.537,11.927-18.926,13.811-30.311
	c21.164-9.022,41.117-18.03,59.222-26.74C379.813,357.912,380.473,365.131,380.473,372.433z M220.062,400.512
	c-4.601-4.941-8.194-10.827-10.459-17.333c8.469,3.897,17.1,7.79,25.853,11.66C230.291,396.768,225.155,398.661,220.062,400.512z
	 M255.283,403.471c6.847,2.936,13.647,5.804,20.383,8.598c-6.027,2.645-12.677,4.124-19.67,4.124
	c-7.675,0-14.943-1.773-21.421-4.925C241.417,408.738,248.326,406.137,255.283,403.471z M275.435,395.619
	c8.897-3.524,17.672-7.077,26.286-10.639c-2.514,6.396-6.323,12.147-11.118,16.913C285.583,399.845,280.522,397.751,275.435,395.619
	z M255.996,317.953c27.085,0,49.119,22.035,49.119,49.119c0,0.047-0.003,0.095-0.004,0.142c-13.742,5.776-27.92,11.53-42.337,17.174
	c-2.394,0.938-4.784,1.865-7.171,2.789c-2.35-1.016-4.702-2.037-7.058-3.067c-14.182-6.202-28.122-12.504-41.623-18.811
	C207.86,339.034,229.506,317.953,255.996,317.953z M115.55,318.64c-35.337-20.148-48.396-31.166-53.178-36.274
	c9.158,0.104,31.383,4.002,74.014,18.138c-4.514,7.491-8.3,15.349-11.309,23.483C121.818,322.185,118.637,320.4,115.55,318.64z
	 M192.307,375.109c1.442,11.487,5.919,22.039,12.617,30.82c-21.627,7.627-42.307,14.417-61.249,20.1
	c-4.823-10.029-8.263-20.672-10.225-31.698c-0.026-0.195-0.062-0.388-0.105-0.583c-1.207-6.975-1.825-14.1-1.825-21.316
	c0-8.92,0.975-17.717,2.842-26.258C152.062,355.553,171.584,365.302,192.307,375.109z M122.438,432.136
	c-39.218,10.737-56.246,12.177-63.242,11.953c6.334-6.182,23.829-18.532,61.42-37.625c2.06,8.202,4.874,16.174,8.392,23.842
	C126.789,430.934,124.596,431.545,122.438,432.136z M256.872,496.906c-33.292,0.187-64.713-12.648-88.491-36.262
	c-6.541-6.497-12.27-13.581-17.143-21.127c20.255-6.142,42.337-13.479,65.436-21.738c10.874,8.452,24.515,13.503,39.322,13.503
	c13.909,0,26.787-4.46,37.312-12.004c22.812,9.177,44.638,17.388,64.676,24.326C335.596,475.552,298.621,496.62,256.872,496.906z
	 M386.909,437.306c-2.049-0.648-4.134-1.319-6.239-2.003c3.801-7.519,6.9-15.368,9.27-23.463
	c36.676,20.481,53.62,33.469,59.696,39.881C442.633,451.677,425.671,449.564,386.909,437.306z"/>
<g>
</g>
<g>
</g>
<g>
</g>
<g>
</g>
<g>
</g>
<g>
</g>
<g>
</g>
<g>
</g>
<g>
</g>
<g>
</g>
<g>
</g>
<g>
</g>
<g>
</g>
<g>
</g>
<g>
</g>
</svg>
