<?xml version="1.0" encoding="iso-8859-1"?>
<!-- Generator: Adobe Illustrator 19.0.0, SVG Export Plug-In . SVG Version: 6.00 Build 0)  -->
<svg xmlns="http://www.w3.org/2000/svg" xmlns:xlink="http://www.w3.org/1999/xlink" version="1.1" id="Capa_1" x="0px" y="0px" viewBox="0 0 512 512" style="enable-background:new 0 0 512 512;" xml:space="preserve" width="512px" height="512px">
<g>
	<g>
		<path d="M481.29,30.71c-40.947-40.946-107.574-40.947-148.521,0L179.232,184.248L30.71,332.769    c-40.947,40.947-40.947,107.574,0,148.521c40.946,40.946,107.573,40.949,148.521,0l148.521-148.522l153.538-153.537    C522.237,138.285,522.237,71.658,481.29,30.71z M158.015,460.073c-29.249,29.247-76.839,29.247-106.086,0    c-29.248-29.249-29.248-76.839,0-106.086l148.521-148.522c23.293-23.292,57.532-27.748,84.874-14.92    c0.116,0.061,0.238,0.108,0.356,0.166c11.881,5.651,22.583,14.643,30.397,26.431l-21.956,21.956    c-2.174-4.552-5.132-8.747-8.802-12.416c-17.569-17.57-46.082-17.57-63.651,0L73.144,375.204    c-17.547,17.548-17.547,46.103,0,63.652c17.547,17.546,46.103,17.548,63.652,0l81.384-81.385    c11.184,3.982,23.087,6.058,35.312,6.058c0.36,0,0.719-0.01,1.079-0.013L158.015,460.073z M264.1,269.117    c-5.849,5.849-15.367,5.85-21.217,0c-5.849-5.85-5.849-15.368,0-21.217c5.843-5.843,15.375-5.842,21.217,0    C269.943,253.743,269.942,263.275,264.1,269.117z M190.592,342.626l-75.012,75.012c-5.85,5.85-15.368,5.85-21.217,0    c-5.849-5.85-5.85-15.368,0-21.218l75.028-75.029C175.353,329.346,182.327,336.419,190.592,342.626z M460.073,158.015    L306.536,311.552c-14.169,14.169-33.006,21.971-53.043,21.971c-19.851,0-38.765-7.695-53.043-21.972    c-3.591-3.591-6.773-7.501-9.541-11.676l21.974-21.974c2.142,4.498,5.065,8.715,8.784,12.433    c17.547,17.548,46.103,17.549,63.651,0l153.539-153.537c17.547-17.548,17.547-46.103,0-63.652    c-17.549-17.548-46.104-17.547-63.652,0l-86.401,86.401c-11.24-4.002-23.458-6.176-36.39-6.044L353.986,51.927    c29.248-29.247,76.839-29.248,106.087,0C489.321,81.176,489.321,128.766,460.073,158.015z M316.392,174.391l80.027-80.027    c5.85-5.85,15.368-5.85,21.217,0c5.85,5.85,5.85,15.368,0,21.218l-80.043,80.043C331.631,187.671,324.657,180.598,316.392,174.391    z" fill="#ffffff"/>
	</g>
</g>
<g>
	<g>
		<path d="M433.839,417.639l-42.435-42.435c-5.858-5.859-15.358-5.859-21.217,0s-5.859,15.358,0,21.217l42.435,42.435    c5.858,5.859,15.359,5.859,21.217,0C439.698,432.997,439.698,423.498,433.839,417.639z" fill="#ffffff"/>
	</g>
</g>
<g>
	<g>
		<path d="M470.41,329.145l-63.652-21.218c-7.865-2.62-16.357,1.628-18.978,9.489c-2.62,7.861,1.627,16.357,9.488,18.978    l63.652,21.217c7.864,2.62,16.358-1.63,18.978-9.489C482.519,340.261,478.27,331.765,470.41,329.145z" fill="#ffffff"/>
	</g>
</g>
<g>
	<g>
		<path d="M352.593,465.937l-21.217-63.652c-2.62-7.859-11.113-12.11-18.978-9.488c-7.861,2.621-12.108,11.116-9.489,18.978    l21.217,63.652c2.623,7.87,11.128,12.106,18.978,9.488C350.965,482.295,355.213,473.799,352.593,465.937z" fill="#ffffff"/>
	</g>
</g>
<g>
	<g>
		<path d="M136.797,120.597L94.362,78.161c-5.858-5.859-15.358-5.859-21.217,0s-5.859,15.358,0,21.217l42.435,42.435    c5.858,5.859,15.359,5.859,21.217,0C142.656,135.955,142.656,126.456,136.797,120.597z" fill="#ffffff"/>
	</g>
</g>
<g>
	<g>
		<path d="M204.074,105.242l-21.218-63.652c-2.62-7.859-11.114-12.11-18.978-9.488c-7.861,2.621-12.108,11.116-9.489,18.978    l21.218,63.652c2.624,7.87,11.128,12.106,18.978,9.488C202.445,121.599,206.693,113.103,204.074,105.242z" fill="#ffffff"/>
	</g>
</g>
<g>
	<g>
		<path d="M109.716,180.623l-63.652-21.218c-7.865-2.62-16.357,1.628-18.978,9.489c-2.62,7.862,1.627,16.358,9.488,18.979    l63.652,21.217c1.574,0.524,3.174,0.773,4.747,0.773c6.281,0,12.135-3.976,14.231-10.262    C121.825,191.74,117.577,183.244,109.716,180.623z" fill="#ffffff"/>
	</g>
</g>
<g>
</g>
<g>
</g>
<g>
</g>
<g>
</g>
<g>
</g>
<g>
</g>
<g>
</g>
<g>
</g>
<g>
</g>
<g>
</g>
<g>
</g>
<g>
</g>
<g>
</g>
<g>
</g>
<g>
</g>
</svg>
