<?xml version="1.0" encoding="iso-8859-1"?>
<!-- Generator: Adobe Illustrator 19.0.0, SVG Export Plug-In . SVG Version: 6.00 Build 0)  -->
<svg xmlns="http://www.w3.org/2000/svg" xmlns:xlink="http://www.w3.org/1999/xlink" version="1.1" id="Capa_1" x="0px" y="0px" viewBox="0 0 320.288 320.288" style="enable-background:new 0 0 320.288 320.288;" xml:space="preserve" width="512px" height="512px">
<g>
	<g>
		<path d="M291.6,145.312l0.144-0.016l-1.776-1.776c-0.032-0.032-0.064-0.064-0.08-0.08L182.128,35.696    c-4.544-4.56-11.92-4.56-16.464,0c-0.64,0.64-1.2,1.328-1.632,2.064c-6.528,10.368-9.824,22.192-9.824,34.016    c0,16.368,6.24,32.72,18.72,45.2l11.328,11.312H32.016c-17.6,0-32,14.4-32,32c0,17.6,14.4,32,32,32h70.4    c-7.168,5.84-11.84,14.64-11.84,24.608c0,6.928,2.272,13.312,6.032,18.544l39.888,68.912c5.536,9.52,15.792,15.936,27.568,15.936    h52.624c57.216,0,103.584-46.368,103.584-103.584C320.272,188.992,309.328,163.888,291.6,145.312z M216.672,304.288h-52.624    c-5.632,0-10.736-2.992-13.664-8.016L109.6,226.128c-1.376-1.92-3.04-5.088-3.04-9.216c0-6.4,3.728-10.4,5.952-12.224    l17.408-14.208c2.624-2.144,3.616-5.696,2.48-8.88c-1.136-3.184-4.144-5.312-7.536-5.312H32.016c-8.816,0-16-7.184-16-16    s7.184-16,16-16h159.952c6.8,0,12.512-4.272,14.8-10.272c0.976-2.576,0.352-5.488-1.6-7.44l-20.912-20.912    c-9.056-9.056-14.032-21.088-14.032-33.888c0-7.216,1.6-14.272,4.672-20.704l105.12,105.28c15.632,16.4,24.24,37.84,24.24,60.352    C304.256,265.008,264.976,304.288,216.672,304.288z" fill="#8a8a8a"/>
	</g>
</g>
<g>
	<g>
		<polygon points="112.016,40.288 30.64,40.288 59.616,11.312 48.304,0 0.016,48.288 48.24,96.496 59.552,85.184 30.64,56.288     112.016,56.288   " fill="#8a8a8a"/>
	</g>
</g>
<g>
</g>
<g>
</g>
<g>
</g>
<g>
</g>
<g>
</g>
<g>
</g>
<g>
</g>
<g>
</g>
<g>
</g>
<g>
</g>
<g>
</g>
<g>
</g>
<g>
</g>
<g>
</g>
<g>
</g>
</svg>
