<?xml version="1.0" encoding="iso-8859-1"?>
<!-- Generator: Adobe Illustrator 19.0.0, SVG Export Plug-In . SVG Version: 6.00 Build 0)  -->
<svg version="1.1" id="Capa_1" xmlns="http://www.w3.org/2000/svg" xmlns:xlink="http://www.w3.org/1999/xlink" x="0px" y="0px"
	 viewBox="0 0 512.002 512.002" style="enable-background:new 0 0 512.002 512.002;" xml:space="preserve">
<g>
	<path style="fill:#E7F2FA;" d="M256.001,222.001c66.31,0,121.852,46.101,136.325,107.999h15.12
		c52.222,0,94.555-42.334,94.555-94.556s-42.333-94.556-94.555-94.556c-5.738,0-11.356,0.512-16.813,1.491
		c-5.457-26.775-25.735-48.158-51.897-55.206C336.179,44.123,300.462,10,256.77,10c-36.062,0-66.691,23.243-77.73,55.565
		l-0.393-0.005c-58.542,0-106,47.458-106,106c0,10.366,1.494,20.381,4.269,29.85c-0.859-0.034-1.724-0.056-2.592-0.056
		C38.799,201.354,10,230.152,10,265.677C10,301.201,38.799,330,74.324,330h45.351C134.15,268.102,189.691,222.001,256.001,222.001z"
		/>
	<path style="fill:#FEDA9B;" d="M392.327,330c-14.474-61.898-70.016-107.999-136.325-107.999
		c-66.311,0-121.852,46.101-136.326,107.999c-2.403,10.277-3.674,20.991-3.674,32.001c0,77.32,62.68,140.001,140,140.001
		s140-62.681,140-140.001C396.001,350.991,394.73,340.277,392.327,330L392.327,330z M290.251,356.751h11.044
		c3.688,0,6.706,3.018,6.706,6.706v62.588c0,3.69-3.018,6.706-6.706,6.706h-90.589c-3.688,0-6.705-3.017-6.705-6.706v-62.588
		c0-3.688,3.018-6.706,6.705-6.706H290.251z"/>
	<path style="fill:#36D28F;" d="M290.251,356.751h-79.545c-3.688,0-6.705,3.018-6.705,6.706v62.588c0,3.69,3.018,6.706,6.705,6.706
		h90.589c3.688,0,6.706-3.017,6.706-6.706v-62.588c0-3.688-3.018-6.706-6.706-6.706H290.251z"/>
</g>
<path d="M407.447,130.889c-3.145,0-6.293,0.141-9.424,0.421c-7.824-23.76-26.42-43.044-49.977-51.666
	C341.926,34.458,303.101,0,256.77,0c-37.049,0-70.229,22.126-84.658,55.742c-60.933,3.402-109.465,54.05-109.465,115.818
	c0,6.879,0.605,13.72,1.803,20.446C28.119,196.85,0,228.041,0,265.676C0.001,306.659,33.342,340,74.324,340h33.295
	c-1.061,7.184-1.618,14.528-1.618,22.002c0,82.71,67.29,150,150,150s150-67.29,150-150c0-7.474-0.557-14.818-1.617-22.002h3.063
	c57.651,0,104.555-46.903,104.555-104.556C512.002,177.792,465.098,130.889,407.447,130.889z M256.001,492.002
	c-71.682,0-130-58.318-130-130c0-71.683,58.318-130.001,130-130.001c71.683,0,130,58.318,130,130.001
	C386.001,433.684,327.684,492.002,256.001,492.002z M407.447,320h-7.439c-18.21-62.332-75.872-107.999-144.007-107.999
	S130.204,257.668,111.995,320H74.324C44.37,320,20,295.631,20,265.677s24.369-54.323,54.323-54.323c0.737,0,1.471,0.02,2.2,0.048
	c3.214,0.131,6.297-1.304,8.276-3.841c1.98-2.538,2.617-5.874,1.712-8.963c-2.565-8.753-3.865-17.849-3.865-27.038
	c0-52.935,43.065-96,96.029-95.999l0.326,0.004c4.271-0.02,8.113-2.707,9.5-6.768C198.472,39.61,225.907,20,256.77,20
	c38.107,0,69.727,29.767,71.985,67.767c0.255,4.294,3.228,7.943,7.381,9.063c22.503,6.063,40.048,24.726,44.699,47.547
	c1.085,5.322,6.22,8.806,11.565,7.846c4.933-0.885,9.995-1.334,15.046-1.334c46.624,0,84.555,37.932,84.555,84.556
	C492.001,282.068,454.071,320,407.447,320z"/>
<path d="M278.135,35.915c-6.831-2.599-14.02-3.916-21.365-3.916c-22.875,0-43.463,12.683-53.731,33.1
	c-2.481,4.934-0.493,10.946,4.441,13.427c1.442,0.725,2.975,1.068,4.485,1.068c3.66,0,7.185-2.017,8.942-5.509
	c6.851-13.623,20.593-22.086,35.863-22.086c4.907,0,9.703,0.878,14.254,2.609c5.166,1.965,10.938-0.63,12.902-5.791
	C285.89,43.655,283.297,37.879,278.135,35.915z"/>
<path d="M205.318,87.656c-5.222-1.788-10.911,0.995-12.701,6.22l-0.188,0.547c-1.789,5.225,0.995,10.911,6.22,12.701
	c1.074,0.368,2.167,0.542,3.242,0.542c4.155,0,8.038-2.611,9.459-6.762l0.188-0.547C213.328,95.132,210.543,89.446,205.318,87.656z"
	/>
<path d="M301.295,346.751h-1.044v-32.75c0-23.572-19.178-42.75-42.75-42.75h-3c-23.572,0-42.75,19.178-42.75,42.75
	c0,5.523,4.477,10,10,10s10-4.477,10-10c0-12.544,10.206-22.75,22.75-22.75h3c12.544,0,22.75,10.206,22.75,22.75v32.75h-69.545
	c-9.211,0-16.705,7.494-16.705,16.706v62.588c0,9.212,7.494,16.706,16.705,16.706h90.589c9.212,0,16.706-7.494,16.706-16.706
	v-62.588C318.001,354.245,310.507,346.751,301.295,346.751z M298.001,422.751h-84v-56h84V422.751z"/>
<g>
</g>
<g>
</g>
<g>
</g>
<g>
</g>
<g>
</g>
<g>
</g>
<g>
</g>
<g>
</g>
<g>
</g>
<g>
</g>
<g>
</g>
<g>
</g>
<g>
</g>
<g>
</g>
<g>
</g>
</svg>
